<?xml version="1.0" encoding="UTF-8"?>
<svg version="1.1" xmlns="http://www.w3.org/2000/svg" width="1024" height="1024">
<path d="M0 0 C337.92 0 675.84 0 1024 0 C1024 337.92 1024 675.84 1024 1024 C686.08 1024 348.16 1024 0 1024 C0 686.08 0 348.16 0 0 Z " fill="#1C1D20" transform="translate(0,0)"/>
<path d="M0 0 C3.38186208 2.98377293 6.66326653 6.06200749 9.90136719 9.20068359 C11.05121899 10.3075694 12.22595828 11.38852252 13.40625 12.46289062 C36.3429538 33.91206761 47.50397943 63.52168572 54.2109375 93.52148438 C54.39825439 94.35454102 54.58557129 95.18759766 54.77856445 96.04589844 C58.02870518 111.84228135 58.60201535 127.80478401 58.53417969 143.88183594 C58.52347156 146.88692504 58.53414165 149.89141333 58.546875 152.89648438 C58.55986822 169.52797568 57.94565735 186.37492334 54.2109375 202.64648438 C54.00033691 203.5776709 53.78973633 204.50885742 53.57275391 205.46826172 C46.10002624 236.98684376 33.36468086 264.68882016 10.74951172 287.99414062 C9.33627709 289.45646214 7.94681118 290.94164262 6.55859375 292.42773438 C-18.85237726 318.99544563 -60.29627859 337.44476488 -97.02392578 338.62768555 C-101.0085157 338.69278313 -104.99157408 338.71571451 -108.9765625 338.70898438 C-109.68898102 338.70804779 -110.40139954 338.70711121 -111.13540649 338.70614624 C-136.08640663 338.63512257 -159.63524392 335.39978687 -182.7265625 325.52148438 C-183.4170166 325.22902832 -184.1074707 324.93657227 -184.81884766 324.63525391 C-203.82529346 316.46615809 -219.62508277 304.57632689 -234.7265625 290.52148438 C-235.74363281 289.585625 -235.74363281 289.585625 -236.78125 288.63085938 C-267.30877521 259.4519397 -279.58604144 219.20073851 -284.7265625 178.52148438 C-284.83403809 177.67481201 -284.94151367 176.82813965 -285.05224609 175.95581055 C-286.07936939 166.49687165 -285.97038072 156.96206267 -285.9765625 147.45898438 C-285.97723724 146.52696198 -285.97791199 145.59493958 -285.97860718 144.63467407 C-285.9218304 95.14389244 -274.22966988 48.19080429 -239.05615234 11.90234375 C-237.92327704 10.72578431 -236.81618473 9.52448814 -235.71484375 8.31835938 C-179.31215841 -51.87713127 -63.50491917 -52.20410943 0 0 Z " fill="#1C1D20" transform="translate(624.7265625,208.478515625)"/>
<path d="M0 0 C7.45070509 1.31323909 14.79568321 2.27749642 22.34912109 2.71411133 C23.524021 2.7861377 24.6989209 2.85816406 25.90942383 2.93237305 C51.20947248 4.20491234 75.67934872 1.19331821 100.60521317 -2.76260567 C153.02410155 -11.07541822 153.02410155 -11.07541822 170.71630859 -0.56323242 C177.11494838 4.44240206 181.7168124 10.70529852 183.34912109 18.71411133 C185.08905005 33.98756031 183.26174838 48.18990153 173.91162109 60.77661133 C172.74932162 62.11147928 171.56269986 63.42568629 170.34912109 64.71411133 C169.80513672 65.33543945 169.26115234 65.95676758 168.70068359 66.59692383 C156.63323224 79.6841598 138.70547387 84.26828282 121.49755859 85.03833008 C99.53404754 85.619702 79.91131299 80.63230906 58.99194336 74.40673828 C40.96138685 69.68131668 23.06551793 73.27320831 5.53662109 78.15161133 C2.64036746 78.93304009 -0.25779729 79.7066202 -3.15763855 80.47462463 C-4.93661937 80.94827345 -6.71331775 81.43062401 -8.48701477 81.9236908 C-31.12885218 88.08349574 -57.61013109 86.98681681 -78.42822266 75.75317383 C-91.43571754 67.52297707 -99.24859036 56.31740182 -103.65087891 41.71411133 C-103.84423828 41.11856445 -104.03759766 40.52301758 -104.23681641 39.90942383 C-106.27549227 29.10059518 -105.16138276 18.21504439 -99.96337891 8.58911133 C-78.35968162 -18.26953936 -29.16003773 -5.18975819 0 0 Z " fill="#81E217" transform="translate(471.65087890625,317.285888671875)"/>
<path d="M0 0 C0.85078125 0.74894531 1.7015625 1.49789062 2.578125 2.26953125 C3.57328125 3.13191406 4.5684375 3.99429688 5.59375 4.8828125 C40.14584345 35.30928285 54.99644447 79.30954281 58.38903809 124.06817627 C58.95926219 133.72241266 58.87063338 143.40520137 58.83886719 153.07250977 C58.82811151 156.96190875 58.8388449 160.85084897 58.8515625 164.74023438 C58.86303256 182.5219377 58.11199522 199.54297209 53.953125 216.89453125 C53.69515137 217.98427246 53.43717773 219.07401367 53.17138672 220.19677734 C44.77863182 254.52537304 29.84366523 281.74095816 5.578125 307.26953125 C4.69253906 308.23439453 4.69253906 308.23439453 3.7890625 309.21875 C-22.50019852 336.99730413 -66.87924172 355.68541698 -104.82592773 357.37667847 C-107.37652064 357.43294903 -109.92537858 357.4603112 -112.4765625 357.47265625 C-113.4175882 357.47835632 -114.35861389 357.4840564 -115.32815552 357.4899292 C-117.31316017 357.49932426 -119.29818002 357.50589115 -121.28320312 357.50976562 C-124.25419975 357.51939296 -127.22447991 357.55043715 -130.1953125 357.58203125 C-142.55388095 357.65071822 -154.30271979 356.70763297 -166.421875 354.26953125 C-167.39092773 354.07601074 -168.35998047 353.88249023 -169.35839844 353.68310547 C-171.54547402 353.204542 -173.69985256 352.67153515 -175.859375 352.08203125 C-176.62830078 351.87408936 -177.39722656 351.66614746 -178.18945312 351.4519043 C-212.27437752 341.82504863 -246.12625907 321.79893461 -267.921875 293.45703125 C-268.63331665 292.53821167 -268.63331665 292.53821167 -269.35913086 291.60083008 C-287.1798678 268.45177472 -297.86847908 244.7161239 -304.421875 216.26953125 C-304.59058105 215.53831055 -304.75928711 214.80708984 -304.93310547 214.05371094 C-308.94030599 196.29089958 -309.74402326 179.11957538 -309.68261719 160.97290039 C-309.67196598 157.23892715 -309.68252581 153.50544238 -309.6953125 149.77148438 C-309.70745672 130.83190623 -309.37455451 111.64865685 -305.234375 93.08203125 C-304.91400269 91.60669922 -304.91400269 91.60669922 -304.5871582 90.1015625 C-298.57327691 63.63281023 -286.43049555 38.66520049 -268.421875 18.26953125 C-267.59171875 17.30660156 -266.7615625 16.34367187 -265.90625 15.3515625 C-242.40726126 -11.46088379 -210.67434696 -28.01388986 -176.421875 -36.73046875 C-175.43574219 -36.99472656 -174.44960938 -37.25898438 -173.43359375 -37.53125 C-114.16275046 -51.9245432 -46.90051184 -39.9229817 0 0 Z M-257.421875 25.26953125 C-264.35470327 33.28948802 -270.195397 42.0544253 -275.421875 51.26953125 C-275.74897461 51.83913574 -276.07607422 52.40874023 -276.41308594 52.99560547 C-285.52979142 69.11660906 -291.60550813 88.00069816 -294.421875 106.26953125 C-294.55432617 107.07084473 -294.68677734 107.8721582 -294.82324219 108.69775391 C-299.40459271 137.33376844 -299.48744158 168.11145372 -294.82763672 196.74121094 C-294.44180356 199.14535547 -294.11299485 201.55018688 -293.80078125 203.96484375 C-290.57766344 227.565886 -282.09140806 250.71290937 -268.421875 270.26953125 C-267.68453125 271.36394531 -266.9471875 272.45835937 -266.1875 273.5859375 C-260.30957481 282.18389041 -253.69326847 289.82652066 -246.421875 297.26953125 C-245.88095215 297.83381836 -245.3400293 298.39810547 -244.78271484 298.97949219 C-214.83454681 329.7334025 -172.0125165 344.63686495 -129.78515625 345.47265625 C-115.44179595 345.61204922 -101.43460793 345.71619904 -87.421875 342.26953125 C-86.57544434 342.07085449 -85.72901367 341.87217773 -84.85693359 341.66748047 C-55.04213789 334.56365176 -27.31979792 320.97948917 -5.421875 299.26953125 C-4.48988281 298.38652344 -3.55789063 297.50351562 -2.59765625 296.59375 C31.66039143 263.57797462 45.90151594 215.2682554 46.84317017 168.70243835 C46.90377789 163.80778224 46.9092039 158.91447467 46.890625 154.01953125 C46.88846985 152.99149384 46.8863147 151.96345642 46.88409424 150.90426636 C46.71463197 100.43438641 34.95729073 54.41765527 -0.421875 17.26953125 C-1.41960937 16.19251953 -1.41960937 16.19251953 -2.4375 15.09375 C-21.14287141 -4.51545238 -46.69894756 -16.49250939 -72.421875 -23.73046875 C-73.11474609 -23.92769531 -73.80761719 -24.12492187 -74.52148438 -24.328125 C-138.76694828 -42.18449301 -212.23130295 -24.39990308 -257.421875 25.26953125 Z " fill="#84E417" transform="translate(636.421875,201.73046875)"/>
<path d="M0 0 C6.27 0 12.54 0 19 0 C19 34.98 19 69.96 19 106 C13.39 106 7.78 106 2 106 C1.34 103.36 0.68 100.72 0 98 C-0.99 98.928125 -1.98 99.85625 -3 100.8125 C-10.44387292 107.04766484 -17.807396 107.67968799 -27.20703125 107.3515625 C-34.6640355 106.66038806 -39.15003287 103.65829498 -44 98 C-52.60098392 86.37523267 -53.50731615 70.58858453 -51.52734375 56.6796875 C-49.43845896 46.89820305 -45.28950619 38.96848697 -37.02734375 33.15625 C-32.12060177 30.35779985 -27.8655529 29.61179936 -22.25 29.625 C-21.18700684 29.62741699 -21.18700684 29.62741699 -20.10253906 29.62988281 C-11.58375138 29.8287195 -6.93880528 32.06119472 -1 38 C-0.67 25.46 -0.34 12.92 0 0 Z " fill="#80E217" transform="translate(777,585)"/>
<path d="M0 0 C19 0 19 0 23.28125 4.12890625 C24.17490701 5.7336369 25.06314572 7.34221319 25.89794922 8.97833252 C27.70578276 12.29472986 29.86104979 15.37288841 31.97216797 18.50180054 C33.87756156 21.32748606 35.75298524 24.17103016 37.62109375 27.02148438 C38.25901855 27.99432373 38.89694336 28.96716309 39.55419922 29.96948242 C40.19631348 30.94892822 40.83842773 31.92837402 41.5 32.9375 C43.4319168 35.87900695 45.36459025 38.82001535 47.29748535 41.76087952 C48.4915061 43.57813056 49.68484271 45.3958314 50.87731934 47.21409607 C55.21973627 53.83145242 59.60922312 60.41383469 64 67 C64.33 44.89 64.66 22.78 65 0 C71.6 0 78.2 0 85 0 C85 33 85 66 85 100 C65 100 65 100 60.15234375 95.75 C58.46875 92.9921875 58.46875 92.9921875 56.9375 90 C55.72847357 87.95797264 54.51883474 85.91630776 53.30859375 83.875 C52.74640137 82.86695313 52.18420898 81.85890625 51.60498047 80.8203125 C49.45660305 77.04512905 47.01830759 73.53385977 44.5 70 C43.63165281 68.74388575 42.76583438 67.48602023 41.90234375 66.2265625 C41.22341064 65.23897949 41.22341064 65.23897949 40.53076172 64.23144531 C37.36623185 59.61839858 34.21445082 54.99664658 31.0625 50.375 C30.423125 49.43785156 29.78375 48.50070312 29.125 47.53515625 C28.51785156 46.64441406 27.91070312 45.75367188 27.28515625 44.8359375 C26.74769775 44.04751465 26.21023926 43.2590918 25.65649414 42.44677734 C23.75678598 39.640753 21.87966148 36.81949223 20 34 C19.67 55.78 19.34 77.56 19 100 C12.73 100 6.46 100 0 100 C0 67 0 34 0 0 Z " fill="#81E317" transform="translate(314,722)"/>
<path d="M0 0 C7.23941127 5.74254052 11.66164599 13.51554765 13.703125 22.4609375 C14.96289566 34.8846891 14.16447704 46.25195665 6.953125 56.7734375 C0.7340568 64.35728874 -7.50434418 69.61309268 -17.38818359 70.68847656 C-29.7141153 71.53377445 -39.63246512 70.10948259 -49.484375 62.14453125 C-56.86455024 55.28923916 -61.01900721 47.00061477 -61.6796875 36.91796875 C-62.11458236 25.04581166 -60.81846264 14.78944798 -53.05078125 5.30859375 C-39.07535207 -9.41385169 -16.84095774 -11.28458733 0 0 Z " fill="#82E417" transform="translate(412.296875,621.5390625)"/>
<path d="M0 0 C6.54842055 4.19526761 11.02998434 9.48391548 13.0625 17 C13.38267983 20.2561976 13.43400954 23.50316673 13.4765625 26.7734375 C13.49592865 27.6971817 13.5152948 28.6209259 13.5352478 29.57266235 C13.59475705 32.50668264 13.64131395 35.44074276 13.6875 38.375 C13.72570617 40.37111032 13.76475942 42.36720463 13.8046875 44.36328125 C13.90043496 49.24205651 13.98457139 54.12090891 14.0625 59 C16.0425 59.33 18.0225 59.66 20.0625 60 C20.0625 64.29 20.0625 68.58 20.0625 73 C13.1325 73 6.2025 73 -0.9375 73 C-1.5975 71.02 -2.2575 69.04 -2.9375 67 C-4.18466797 67.74056641 -4.18466797 67.74056641 -5.45703125 68.49609375 C-6.54371094 69.13675781 -7.63039063 69.77742187 -8.75 70.4375 C-9.82894531 71.07558594 -10.90789063 71.71367188 -12.01953125 72.37109375 C-18.47310091 75.97368886 -26.23651188 76.08369361 -33.39453125 74.43359375 C-35.4375 73.6875 -35.4375 73.6875 -38.9375 72 C-39.824375 71.608125 -40.71125 71.21625 -41.625 70.8125 C-45.9788935 67.39998888 -48.91257348 62.44162016 -49.9375 57 C-50.68872215 50.44835766 -49.77552913 45.419068 -45.9375 40 C-38.07500199 30.51681994 -24.24201272 29.24777131 -12.84375 26.83203125 C-10.18742883 26.26623484 -7.56652273 25.67078097 -4.9375 25 C-6.17944993 19.23826408 -6.17944993 19.23826408 -9.9375 15 C-15.33501216 13.20082928 -20.29023261 13.47836533 -25.6875 15.1875 C-29.06371877 16.86857722 -29.06371877 16.86857722 -31.625 19.75 C-32.388125 20.4925 -33.15125 21.235 -33.9375 22 C-37.42705176 21.68276802 -39.85744044 19.89357058 -42.6875 17.9375 C-43.48671875 17.38964844 -44.2859375 16.84179688 -45.109375 16.27734375 C-45.71265625 15.85582031 -46.3159375 15.43429687 -46.9375 15 C-45.81486348 9.60671525 -42.94084969 6.37710321 -38.48828125 3.31640625 C-27.82237699 -3.17656028 -11.78933308 -5.47230726 0 0 Z " fill="#83E417" transform="translate(617.9375,749)"/>
<path d="M0 0 C7.65846139 5.92093961 11.12757926 12.63789628 13 22 C13 27.94 13 33.88 13 40 C-3.17 40 -19.34 40 -36 40 C-32.96621138 50.94415375 -32.96621138 50.94415375 -24.6875 56.8125 C-16.97782803 59.29527572 -10.36874669 57.97539298 -3 55 C-0.21605521 53.48639895 2.41299836 51.82824418 5 50 C6.03612271 51.40552299 7.05344925 52.82491694 8.0625 54.25 C8.63097656 55.03890625 9.19945312 55.8278125 9.78515625 56.640625 C11 59 11 59 10.89453125 61.109375 C8.46795905 66.23802541 2.22806218 69.16078307 -2.75 71.375 C-8.17578549 73.18359516 -13.45497818 73.42179999 -19.125 73.5 C-19.95999023 73.51853027 -20.79498047 73.53706055 -21.65527344 73.55615234 C-31.17729366 73.46044422 -39.0454463 69.36767153 -46 63 C-54.47689018 53.75597044 -56.35035115 43.59093668 -56.2109375 31.30859375 C-55.54545729 20.8704134 -50.82027954 11.21554244 -43.125 4.125 C-31.65383466 -5.19257491 -12.94441186 -8.37024811 0 0 Z " fill="#82E317" transform="translate(625,619)"/>
<path d="M0 0 C21.12 0 42.24 0 64 0 C64 5.61 64 11.22 64 17 C49.48 17 34.96 17 20 17 C20 25.91 20 34.82 20 44 C31.88 44 43.76 44 56 44 C56 49.61 56 55.22 56 61 C44.12 61 32.24 61 20 61 C20 74.2 20 87.4 20 101 C13.4 101 6.8 101 0 101 C0 67.67 0 34.34 0 0 Z " fill="#81E317" transform="translate(230,590)"/>
<path d="M0 0 C6.08065399 3.6238241 9.34463458 8.78322323 11.43505859 15.4362793 C12.81334318 21.13227846 12.62308889 26.82829529 12.5703125 32.65625 C12.5674826 33.84351685 12.56465271 35.03078369 12.56173706 36.25402832 C12.55059598 40.02362401 12.52550226 43.79297685 12.5 47.5625 C12.48996237 50.12760072 12.48083789 52.69270519 12.47265625 55.2578125 C12.45067647 61.52613438 12.41618829 67.7942761 12.375 74.0625 C6.105 74.0625 -0.165 74.0625 -6.625 74.0625 C-6.63901855 71.74677979 -6.63901855 71.74677979 -6.65332031 69.38427734 C-6.6932408 63.64765745 -6.75900663 57.91157266 -6.83251953 52.17529297 C-6.86071696 49.69424319 -6.88193755 47.21310378 -6.89599609 44.73193359 C-6.91744162 41.16196853 -6.96410342 37.59307972 -7.015625 34.0234375 C-7.01685364 32.91696869 -7.01808228 31.81049988 -7.01934814 30.67050171 C-7.13556108 24.53750926 -7.44742895 20.69653471 -11.625 16.0625 C-14.30155801 14.72422099 -16.44934052 14.85671444 -19.4375 14.8125 C-20.47519531 14.78671875 -21.51289063 14.7609375 -22.58203125 14.734375 C-27.3160464 15.24484647 -29.63035517 16.92638792 -32.73461914 20.47216797 C-35.66903987 25.03610688 -35.22816886 30.10962015 -35.234375 35.3671875 C-35.25091125 36.44630402 -35.26744751 37.52542053 -35.28448486 38.63723755 C-35.33291859 42.07071654 -35.35432636 45.50375272 -35.375 48.9375 C-35.40316342 51.27085555 -35.43309136 53.60419052 -35.46484375 55.9375 C-35.5386769 61.64579689 -35.58828027 67.35384861 -35.625 73.0625 C-41.895 73.0625 -48.165 73.0625 -54.625 73.0625 C-54.625 48.6425 -54.625 24.2225 -54.625 -0.9375 C-48.685 -0.9375 -42.745 -0.9375 -36.625 -0.9375 C-36.295 2.0325 -35.965 5.0025 -35.625 8.0625 C-34.73748047 7.23105469 -34.73748047 7.23105469 -33.83203125 6.3828125 C-33.04183594 5.65835938 -32.25164062 4.93390625 -31.4375 4.1875 C-30.66019531 3.46820312 -29.88289063 2.74890625 -29.08203125 2.0078125 C-21.49244043 -4.00111632 -8.69259488 -3.83691403 0 0 Z " fill="#81E417" transform="translate(506.625,748.9375)"/>
<path d="M0 0 C7.52663089 4.6632387 10.55531731 11.11241007 13.00462341 19.34332275 C13.52472627 21.85948462 13.55714444 24.18683585 13.55102539 26.75683594 C13.55091209 28.34803253 13.55091209 28.34803253 13.55079651 29.97137451 C13.54563522 31.11003967 13.54047394 32.24870483 13.53515625 33.421875 C13.5337413 34.59260559 13.53232635 35.76333618 13.53086853 36.96954346 C13.5252709 40.70888829 13.5127188 44.44817326 13.5 48.1875 C13.4949847 50.72265539 13.49042184 53.25781171 13.48632812 55.79296875 C13.47530223 62.00783557 13.45803919 68.22265763 13.4375 74.4375 C7.1675 74.4375 0.8975 74.4375 -5.5625 74.4375 C-5.57651855 72.12177979 -5.57651855 72.12177979 -5.59082031 69.75927734 C-5.6307408 64.02265745 -5.69650663 58.28657266 -5.77001953 52.55029297 C-5.79821696 50.06924319 -5.81943755 47.58810378 -5.83349609 45.10693359 C-5.85494162 41.53696853 -5.90160342 37.96807972 -5.953125 34.3984375 C-5.95435364 33.29196869 -5.95558228 32.18549988 -5.95684814 31.04550171 C-6.07251198 24.94148773 -6.32350883 21.00293779 -10.5625 16.4375 C-16.38369962 14.49710013 -22.45814714 14.49805676 -28.0625 17 C-33.31604073 22.12220221 -33.90996049 27.5182356 -34.05485535 34.54893494 C-34.06444023 36.06965355 -34.06444023 36.06965355 -34.07421875 37.62109375 C-34.09216995 38.67659927 -34.11012115 39.7321048 -34.12861633 40.81959534 C-34.18254359 44.17135698 -34.21655917 47.52297762 -34.25 50.875 C-34.28318853 53.1556185 -34.3176796 55.43621844 -34.35351562 57.71679688 C-34.43826025 63.29026259 -34.5051556 68.86368775 -34.5625 74.4375 C-40.5025 74.4375 -46.4425 74.4375 -52.5625 74.4375 C-52.5625 50.0175 -52.5625 25.5975 -52.5625 0.4375 C-46.9525 0.4375 -41.3425 0.4375 -35.5625 0.4375 C-34.9025 3.0775 -34.2425 5.7175 -33.5625 8.4375 C-32.86125 7.695 -32.16 6.9525 -31.4375 6.1875 C-23.18335487 -1.70776926 -10.87221893 -4.9496094 0 0 Z " fill="#82E317" transform="translate(702.5625,616.5625)"/>
<path d="M0 0 C6.88153485 4.3557847 10.12342806 10.73142406 12.3125 18.375 C12.81728728 22.79608494 12.78133738 27.15654286 12.703125 31.6015625 C12.69746521 32.83039154 12.69180542 34.05922058 12.68597412 35.32528687 C12.66373617 39.21726852 12.61356079 43.10830059 12.5625 47 C12.54241886 49.65233038 12.52417093 52.3046753 12.5078125 54.95703125 C12.46391223 61.43004863 12.39497013 67.90236379 12.3125 74.375 C6.3725 74.375 0.4325 74.375 -5.6875 74.375 C-5.70208252 72.92730225 -5.71666504 71.47960449 -5.73168945 69.98803711 C-5.78980627 64.59993195 -5.86703901 59.21223884 -5.94995117 53.82446289 C-5.98313748 51.49575505 -6.01118888 49.16696798 -6.03393555 46.83813477 C-6.06759669 43.48419543 -6.11991999 40.13097794 -6.17578125 36.77734375 C-6.18217117 35.74165756 -6.1885611 34.70597137 -6.19514465 33.63890076 C-6.32790925 27.06251042 -6.73877304 21.41063681 -11.54296875 16.46484375 C-16.18966692 14.10340697 -21.95140414 14.54677639 -26.85546875 16.03125 C-30.71979879 17.94281625 -32.52690609 20.27596502 -34.09170532 24.21121216 C-35.29524684 28.58219531 -35.17082065 33.0530074 -35.19921875 37.55859375 C-35.21716995 38.61409927 -35.23512115 39.6696048 -35.25361633 40.75709534 C-35.30754359 44.10885698 -35.34155917 47.46047762 -35.375 50.8125 C-35.40818853 53.0931185 -35.4426796 55.37371844 -35.47851562 57.65429688 C-35.56326025 63.22776259 -35.6301556 68.80118775 -35.6875 74.375 C-41.6275 74.375 -47.5675 74.375 -53.6875 74.375 C-53.6875 49.625 -53.6875 24.875 -53.6875 -0.625 C-47.7475 -0.625 -41.8075 -0.625 -35.6875 -0.625 C-35.3575 2.345 -35.0275 5.315 -34.6875 8.375 C-33.79998047 7.54355469 -33.79998047 7.54355469 -32.89453125 6.6953125 C-32.10433594 5.97085938 -31.31414062 5.24640625 -30.5 4.5 C-29.72269531 3.78070312 -28.94539063 3.06140625 -28.14453125 2.3203125 C-21.0761515 -3.27595636 -8.17763548 -3.7598324 0 0 Z " fill="#83E417" transform="translate(491.6875,616.625)"/>
<path d="M0 0 C0.8878418 0.00757324 1.77568359 0.01514648 2.69042969 0.02294922 C12.49349453 0.26973714 21.23322044 3.15298928 28.1875 10.4375 C28.1875 14.24095877 27.04963669 15.21451015 24.6875 18.125 C24.0378125 18.93324219 23.388125 19.74148438 22.71875 20.57421875 C22.2134375 21.18910156 21.708125 21.80398438 21.1875 22.4375 C18.05798272 21.22167708 15.04601308 19.91355674 12.0625 18.375 C8.04163527 16.30198608 4.80014123 15.28421159 0.25 15.25 C-1.03197266 15.22873047 -1.03197266 15.22873047 -2.33984375 15.20703125 C-4.99642706 15.45464328 -6.58406435 15.98677344 -8.8125 17.4375 C-9.98227494 19.78622531 -9.98227494 19.78622531 -9.8125 22.4375 C-7.04546225 25.85162507 -4.70347689 27.08410884 -0.48828125 28.1484375 C1.05569336 28.56222656 1.05569336 28.56222656 2.63085938 28.984375 C4.77341274 29.53130012 6.91663242 30.07562235 9.06054688 30.6171875 C17.16234105 32.79514337 25.11824838 35.62309227 29.75 43.0625 C32.20489793 48.9678305 32.25604149 55.65650705 30.52734375 61.7734375 C27.73770115 68.0773052 22.78790498 72.42890145 16.5625 75.25 C6.25777652 78.87573604 -4.83019966 78.61666993 -15.03515625 74.78125 C-19.42430406 72.65766794 -23.49768547 70.04529057 -26.8125 66.4375 C-26.8125 62.76715255 -25.7372108 61.3375569 -23.8125 58.25 C-23.255625 57.34894531 -22.69875 56.44789063 -22.125 55.51953125 C-21.691875 54.83246094 -21.25875 54.14539063 -20.8125 53.4375 C-17.05623705 54.84439122 -13.68618694 56.61040243 -10.1875 58.5625 C-4.2370727 61.56339367 0.59710386 62.50680268 7.1875 61.4375 C10.41193672 60.64411039 10.41193672 60.64411039 12.1875 58.4375 C13.02083333 54.9375 13.02083333 54.9375 12.1875 51.4375 C7.20586213 47.38863795 0.30009114 46.45245645 -5.80078125 44.95117188 C-13.3198762 42.95509559 -20.73607591 39.86356558 -25.3125 33.25 C-28.35799739 27.53969239 -28.9903501 21.47482957 -27.1640625 15.21484375 C-24.06210688 8.33486526 -18.79549129 3.88764412 -11.85327148 1.04174805 C-7.95345402 -0.1129413 -4.0389638 -0.04791991 0 0 Z " fill="#82E417" transform="translate(672.8125,746.5625)"/>
<path d="M0 0 C5.94 0 11.88 0 18 0 C18 6.27 18 12.54 18 19 C23.94 19 29.88 19 36 19 C36 24.28 36 29.56 36 35 C30.06 35 24.12 35 18 35 C18.06870701 40.94524425 18.15658932 46.88977368 18.26245117 52.83447266 C18.29575679 54.85782971 18.323771 56.88128093 18.34643555 58.90478516 C18.37987835 61.80932852 18.43218769 64.71300442 18.48828125 67.6171875 C18.49467117 68.52556366 18.5010611 69.43393982 18.50764465 70.36984253 C18.53733589 71.63092331 18.53733589 71.63092331 18.56762695 72.91748047 C18.58428154 74.03000687 18.58428154 74.03000687 18.60127258 75.16500854 C18.86719253 77.41361836 18.86719253 77.41361836 22 79 C26.9040976 79.28292871 31.0661032 78.7048424 36 78 C36 82.95 36 87.9 36 93 C26.02188056 96.0701906 17.58238699 98.0937103 7.90625 93.1875 C2.27590892 89.68007441 0.52645615 84.1522823 -1 78 C-1.36562595 74.56079765 -1.35280709 71.17023037 -1.29296875 67.71484375 C-1.28872391 66.77314835 -1.28447906 65.83145294 -1.28010559 64.86122131 C-1.26346216 61.88634282 -1.22583772 58.91216986 -1.1875 55.9375 C-1.1724346 53.9069109 -1.15874946 51.87631107 -1.14648438 49.84570312 C-1.11360578 44.89686819 -1.0619244 39.94855325 -1 35 C-5.29 35 -9.58 35 -14 35 C-14 29.72 -14 24.44 -14 19 C-9.71 19 -5.42 19 -1 19 C-1.01160156 18.04738281 -1.02320313 17.09476563 -1.03515625 16.11328125 C-1.04869141 14.23189453 -1.04869141 14.23189453 -1.0625 12.3125 C-1.07410156 11.07113281 -1.08570313 9.82976563 -1.09765625 8.55078125 C-1 5 -1 5 0 0 Z " fill="#81E217" transform="translate(528,597)"/>
<path d="M0 0 C12.7544505 3.20265938 25.11921983 7.52122846 37.41796875 12.140625 C38.17357086 12.42390656 38.92917297 12.70718811 39.70767212 12.99905396 C43.52543411 14.43186363 47.3394627 15.8735819 51.1484375 17.32958984 C59.39238328 20.45365365 67.55426546 23.09896242 76.13208008 25.15380859 C79 26 79 26 81 28 C79.03499375 31.53701125 77.16653358 34.44918128 74 37 C72.845 37.28875 71.69 37.5775 70.5 37.875 C66.81459497 38.65637632 66.81459497 38.65637632 65.1875 41.75 C61.26615492 47.5759984 53.86386234 51.59921177 47 53 C38.88509881 53.94179298 32.72775501 52.73349713 26 48 C20.41054111 43.06317096 16.51014604 37.36134611 15.79296875 29.82421875 C15.72867762 26.62719639 15.98616702 24.04149893 17 21 C16.40832031 20.81824219 15.81664062 20.63648438 15.20703125 20.44921875 C4.91025113 17.17373405 4.91025113 17.17373405 1.1875 12.9375 C-0.54729415 8.64616711 -0.2395984 4.57011756 0 0 Z " fill="#1B1D20" transform="translate(405,333)"/>
<path d="M0 0 C5.94 0 11.88 0 18 0 C18.06790372 11.3183315 18.12288991 22.63652665 18.15543652 33.95501614 C18.17106094 39.2112176 18.19224023 44.46727189 18.22631836 49.72338867 C18.25902688 54.80030314 18.27687724 59.87707647 18.28463173 64.95408821 C18.29015464 66.88647748 18.3009394 68.81885945 18.31719017 70.75118828 C18.33911733 73.46767462 18.34196057 76.18358522 18.34057617 78.90014648 C18.351362 79.69065399 18.36214783 80.4811615 18.3732605 81.29562378 C18.33551472 88.18595643 17.08089219 94.48102524 12.625 99.875 C6.34339517 104.96010867 1.13247532 106.8515681 -7 106 C-10.0962723 105.17432739 -12.99252518 104.12780306 -16 103 C-16 99.04 -16 95.08 -16 91 C-13.23307292 91.13020833 -10.46614583 91.26041667 -7.69921875 91.390625 C-4.90880728 91.25887223 -4.90880728 91.25887223 -3.20703125 89.234375 C-0.71755816 84.62602999 -0.83354224 80.07044008 -0.79467773 74.92675781 C-0.78477814 74.11662735 -0.77487854 73.30649689 -0.76467896 72.47181702 C-0.73313785 69.79894922 -0.70833577 67.12606366 -0.68359375 64.453125 C-0.66301784 62.59795678 -0.6420212 60.74279317 -0.62062073 58.88763428 C-0.56546584 54.00835923 -0.51602754 49.12904234 -0.46777344 44.24969482 C-0.41751033 39.26928998 -0.36184938 34.28894579 -0.30664062 29.30859375 C-0.19913956 19.53911243 -0.09817562 9.76957949 0 0 Z " fill="#83E517" transform="translate(537,748)"/>
<path d="M0 0 C1.63734413 3.27468826 1.65041093 6.47375249 1 10 C-2.20119815 16.07250184 -7.65122684 18.95569504 -14 21 C-14.66 21 -15.32 21 -16 21 C-15.88140625 21.67804688 -15.7628125 22.35609375 -15.640625 23.0546875 C-14.50135554 31.28021301 -15.55949245 37.24882291 -20.4765625 44.0390625 C-25.35880957 49.47663625 -31.35303771 52.30865745 -38.546875 53.37890625 C-47.01408602 53.78648939 -53.83497209 50.30404237 -60.51953125 45.36328125 C-62 44 -62 44 -64 40.8125 C-66.60971289 37.14259125 -68.7551157 37.19154647 -73 36 C-75.15470927 34.1523368 -76.38536525 32.39748796 -78 30 C-78 29.01 -78 28.02 -78 27 C-77.11707275 26.75431274 -77.11707275 26.75431274 -76.21630859 26.50366211 C-59.45457676 21.76263224 -43.38651444 15.80743048 -27.25146484 9.28100586 C-4.28761732 0 -4.28761732 0 0 0 Z " fill="#1B1C20" transform="translate(616,333)"/>
<path d="M0 0 C0 6.27 0 12.54 0 19 C-1.32 18.67 -2.64 18.34 -4 18 C-9.93654317 17.42917854 -14.18686887 18.57849157 -19 22 C-22.48295325 26.37601819 -24.09641563 29.91719692 -24.20532227 35.47143555 C-24.22526749 36.37214279 -24.24521271 37.27285004 -24.26576233 38.20085144 C-24.29083107 39.65410576 -24.29083107 39.65410576 -24.31640625 41.13671875 C-24.33718735 42.13129593 -24.35796844 43.12587311 -24.37937927 44.15058899 C-24.44479412 47.32948867 -24.5037224 50.50847134 -24.5625 53.6875 C-24.60569288 55.84180548 -24.64930742 57.99610254 -24.69335938 60.15039062 C-24.80046731 65.43350858 -24.90175766 70.71671005 -25 76 C-30.94 76 -36.88 76 -43 76 C-43 51.58 -43 27.16 -43 2 C-37.39 2 -31.78 2 -26 2 C-25.34 4.64 -24.68 7.28 -24 10 C-23.56429688 9.52949219 -23.12859375 9.05898438 -22.6796875 8.57421875 C-15.39001375 0.95319619 -10.48578116 -0.38362614 0 0 Z " fill="#83E417" transform="translate(346,615)"/>
<path d="M0 0 C4.26452334 1.45009386 7.29425921 3.58389241 10.8125 6.375 C11.95743065 7.27588799 13.10330898 8.17557251 14.25 9.07421875 C14.85457031 9.54907715 15.45914063 10.02393555 16.08203125 10.51318359 C18.76653311 12.59421928 21.4942787 14.61473244 24.22338867 16.63671875 C27.49944046 19.06858517 30.75129542 21.53178689 34 24 C34.92167969 24.69480469 35.84335937 25.38960938 36.79296875 26.10546875 C41.7574727 30.08585864 41.7574727 30.08585864 42.8125 34.0625 C40.96704845 40.73451715 35.19079475 44.63990657 29.8125 48.5 C28.39440469 49.53580732 26.9777983 50.57365543 25.5625 51.61328125 C24.45261719 52.42853271 24.45261719 52.42853271 23.3203125 53.26025391 C20.88726072 55.08453074 18.50286653 56.95989641 16.125 58.85546875 C15.32215576 59.49355469 14.51931152 60.13164062 13.69213867 60.7890625 C12.13217452 62.03357683 10.5774311 63.28466982 9.02856445 64.54296875 C7.95674927 65.39375 7.95674927 65.39375 6.86328125 66.26171875 C5.92415894 67.01908325 5.92415894 67.01908325 4.96606445 67.79174805 C2.6033123 69.24378585 0.76093031 69.77308953 -2 70 C-4.45703125 67.91015625 -4.45703125 67.91015625 -6.8125 65.0625 C-7.99779297 63.65677734 -7.99779297 63.65677734 -9.20703125 62.22265625 C-10.09455078 61.12244141 -10.09455078 61.12244141 -11 60 C-6.67272459 55.33713996 -1.76590575 51.72437135 3.375 48 C4.2 47.39671875 5.025 46.7934375 5.875 46.171875 C10.56127642 42.75014936 15.27229202 39.36419112 20 36 C18.50024443 32.2878978 16.43055631 30.46088749 13.3125 28 C12.343125 27.22785156 11.37375 26.45570313 10.375 25.66015625 C9.84132813 25.24008301 9.30765625 24.82000977 8.7578125 24.38720703 C6.80979468 22.8498963 4.873 21.2991324 2.9375 19.74609375 C-0.70353585 16.82468278 -4.35045381 13.91077166 -8 11 C-6.63629701 8.00779732 -5.05091917 5.70973471 -2.875 3.25 C-2.33617187 2.63640625 -1.79734375 2.0228125 -1.2421875 1.390625 C-0.62730469 0.70226562 -0.62730469 0.70226562 0 0 Z " fill="#83E417" transform="translate(553,436)"/>
<path d="M0 0 C3.18086518 1.50946511 5.29869906 3.07941825 7.75 5.625 C8.67039062 6.57246094 8.67039062 6.57246094 9.609375 7.5390625 C10.29773438 8.26222656 10.29773438 8.26222656 11 9 C9.45592294 13.26600779 6.24749293 15.43299456 2.75 18.0625 C2.13753418 18.53421631 1.52506836 19.00593262 0.89404297 19.49194336 C-1.06564811 21.0012598 -3.03237798 22.50104196 -5 24 C-7.63179322 26.01217508 -10.25525757 28.03467299 -12.875 30.0625 C-13.79394043 30.7596814 -13.79394043 30.7596814 -14.73144531 31.47094727 C-16.19148074 32.60081654 -17.60144607 33.7948631 -19 35 C-19 35.66 -19 36.32 -19 37 C-16.61582807 38.76997535 -14.22499367 40.42820166 -11.75 42.0625 C-10.28264915 43.05290452 -8.81651538 44.04511446 -7.3515625 45.0390625 C-6.6184082 45.53567383 -5.88525391 46.03228516 -5.12988281 46.54394531 C-2.08758444 48.62375589 0.90157212 50.75988007 3.875 52.9375 C4.82117188 53.62714844 5.76734375 54.31679688 6.7421875 55.02734375 C8.93529325 56.94346556 9.95499425 58.31541625 11 61 C9.79040384 62.37167605 8.55648812 63.72193609 7.3125 65.0625 C6.28576172 66.19365234 6.28576172 66.19365234 5.23828125 67.34765625 C3 69 3 69 0.7421875 69.10546875 C-3.36890817 67.44814671 -6.65867172 64.90272117 -10.1875 62.25 C-11.78482879 61.06986914 -13.38249553 59.8901956 -14.98046875 58.7109375 C-15.80208496 58.10088867 -16.62370117 57.49083984 -17.47021484 56.86230469 C-20.00043034 54.9996832 -22.55159561 53.17060963 -25.11328125 51.3515625 C-25.93223877 50.76858398 -26.75119629 50.18560547 -27.5949707 49.58496094 C-29.17335246 48.46274129 -30.75385493 47.34349722 -32.33666992 46.22753906 C-33.05056885 45.71674805 -33.76446777 45.20595703 -34.5 44.6796875 C-35.1290625 44.23351074 -35.758125 43.78733398 -36.40625 43.32763672 C-39.02857091 41.1431727 -39.95119604 39.41049551 -40.3515625 36.04296875 C-39.92498105 32.35066932 -39.21899808 31.613553 -36.375 29.3125 C-35.54742187 28.63058594 -34.71984375 27.94867188 -33.8671875 27.24609375 C-32.92101562 26.50488281 -31.97484375 25.76367188 -31 25 C-29.97132813 24.18660156 -28.94265625 23.37320312 -27.8828125 22.53515625 C-26.17536109 21.18964844 -24.46524559 19.84797956 -22.74902344 18.51367188 C-15.03220181 12.50755735 -7.52457867 6.24394534 0 0 Z " fill="#83E317" transform="translate(468,435)"/>
<path d="M0 0 C6.57779096 2.23396674 9.78198159 6.60596381 12.8125 12.5625 C15.42855802 20.36582734 14.95643058 29.50429062 11.98046875 37.1328125 C10.44885825 40.04958468 8.54524111 41.93956672 6 44 C5.29875 44.598125 4.5975 45.19625 3.875 45.8125 C-1.20390776 47.91030973 -6.88334101 48.01219934 -12.12890625 46.30859375 C-17.79978838 43.38129174 -20.26089834 39.1803499 -22.25 33.3125 C-24.01042899 24.98614665 -23.97845072 15.68297532 -20 8 C-13.87075933 1.11870526 -9.07744209 -0.75528794 0 0 Z " fill="#1B1C20" transform="translate(393,630)"/>
<path d="M0 0 C5.94 0 11.88 0 18 0 C18 24.42 18 48.84 18 74 C12.06 74 6.12 74 0 74 C0 49.58 0 25.16 0 0 Z " fill="#84E617" transform="translate(418,748)"/>
<path d="M0 0 C5.28 0 10.56 0 16 0 C15.33796737 3.31016317 14.78226466 5.86563621 13.6081543 8.9152832 C13.32621719 9.65357361 13.04428009 10.39186401 12.75379944 11.15252686 C12.44703781 11.94395081 12.14027618 12.73537476 11.82421875 13.55078125 C11.34190041 14.81006439 11.34190041 14.81006439 10.84983826 16.0947876 C9.79940484 18.83545345 8.74358479 21.57400743 7.6875 24.3125 C6.22867031 28.1086859 4.77227791 31.90580382 3.31640625 35.703125 C2.95125916 36.65453873 2.58611206 37.60595245 2.2098999 38.5861969 C-0.11839884 44.66341444 -2.40720973 50.75384662 -4.66015625 56.859375 C-4.93775284 57.60966476 -5.21534943 58.35995453 -5.50135803 59.13298035 C-6.5501016 61.96848965 -7.59876945 64.80391944 -8.63320923 67.64468384 C-9.33015717 69.55830368 -10.03591944 71.46870658 -10.7421875 73.37890625 C-11.1326123 74.4469751 -11.52303711 75.51504395 -11.92529297 76.61547852 C-13 79 -13 79 -15 80 C-17.37402501 80.07116382 -19.75000677 80.08409085 -22.125 80.0625 C-24.04699219 80.04896484 -24.04699219 80.04896484 -26.0078125 80.03515625 C-26.99523437 80.02355469 -27.98265625 80.01195312 -29 80 C-30.30453922 77.02559357 -29.92200564 75.74777019 -28.94287109 72.58129883 C-28.39781417 71.201975 -27.84041335 69.82749091 -27.2734375 68.45703125 C-26.97403763 67.70797516 -26.67463776 66.95891907 -26.36616516 66.18716431 C-25.37931809 63.72469836 -24.37716497 61.26876692 -23.375 58.8125 C-22.69000454 57.11057287 -22.00617796 55.40817484 -21.32348633 53.70532227 C-19.91862789 50.20370628 -18.50866143 46.70421227 -17.09521484 43.20605469 C-14.19548507 36.0169985 -11.3625205 28.80184277 -8.53082275 21.58578491 C-7.19379548 18.17983445 -5.85278216 14.77545655 -4.51171875 11.37109375 C-4.07303467 10.25661865 -3.63435059 9.14214355 -3.18237305 7.99389648 C-2.12889109 5.32636618 -1.06515611 2.66289027 0 0 Z " fill="#83E417" transform="translate(518,430)"/>
<path d="M0 0 C3.58527817 2.33998769 6.0846405 4.17188263 8.48046875 7.765625 C8.91131515 11.85403119 8.89451158 15.94303703 8.90600586 20.05249023 C8.9178658 22.06069349 8.96755938 24.0685566 9.01757812 26.07617188 C9.0778989 36.92842813 9.0778989 36.92842813 6.0859375 40.56640625 C5.22613281 41.29214844 4.36632812 42.01789062 3.48046875 42.765625 C2.77921875 43.384375 2.07796875 44.003125 1.35546875 44.640625 C-3.23864484 46.43832162 -7.6587765 46.39466385 -12.51953125 45.765625 C-17.98653626 43.28062272 -19.99921321 39.9929513 -22.51953125 34.765625 C-25.46787193 26.15647023 -24.62283605 13.77224989 -20.73046875 5.65625 C-16.21830801 -1.38854289 -7.45346661 -3.65162085 0 0 Z " fill="#1B1C20" transform="translate(768.51953125,631.234375)"/>
<path d="M0 0 C1.21485889 11.22057166 1.21485889 11.22057166 -1.60546875 15.3515625 C-6.85583986 19.98134565 -11.83509625 22.60209367 -18.99609375 22.37109375 C-22.91566534 21.64524716 -24.43972358 20.07233171 -27 17 C-27.85974156 14.11870395 -28.089227 11.81917576 -27 9 C-22.55901283 4.38607719 -18.55868705 2.92745808 -12.375 1.6875 C-11.62476563 1.51927734 -10.87453125 1.35105469 -10.1015625 1.17773438 C-6.63950719 0.42578087 -3.55635263 0 0 0 Z " fill="#1A1C20" transform="translate(614,788)"/>
<path d="M0 0 C3.36649582 2.42700861 5.38094542 4.97940818 6.6875 8.9375 C6.6875 10.9175 6.6875 12.8975 6.6875 14.9375 C-3.5425 14.9375 -13.7725 14.9375 -24.3125 14.9375 C-23.18085222 8.14761334 -23.18085222 8.14761334 -20 4.6875 C-19.40574219 4.02234375 -18.81148437 3.3571875 -18.19921875 2.671875 C-12.86542686 -2.23123804 -6.65261201 -2.13385668 0 0 Z " fill="#191B20" transform="translate(613.3125,630.0625)"/>
<path d="M0 0 C3.02508145 1.73602105 5.41790069 3.83580137 7 7 C7.54724071 12.69130337 6.59333707 15.56117185 3 20 C-0.71453232 21.85726616 -4.95579425 21.58501089 -9 21 C-11.82424288 18.80977082 -13.41508603 17.16982793 -15 14 C-15.67660495 8.13609041 -15.67660495 8.13609041 -13.953125 5.2421875 C-9.88463507 0.2882027 -6.3581058 -1.08524255 0 0 Z " fill="#83E317" transform="translate(431,717)"/>
<path d="M0 0 C3.4431146 2.09580889 5.7468218 4.1265401 7 8 C7.49494564 12.65248906 6.80764101 15.25647865 4 19 C-0.2258785 21.81725233 -4.03624688 21.79958384 -9 21 C-11.82424288 18.80977082 -13.41508603 17.16982793 -15 14 C-15.67660495 8.13609041 -15.67660495 8.13609041 -13.953125 5.2421875 C-9.82178664 0.2116755 -6.41717437 -0.89914343 0 0 Z " fill="#84E417" transform="translate(550,717)"/>
<path d="M0 0 C5.94 0 11.88 0 18 0 C18 34.65 18 69.3 18 105 C12.39 105 6.78 105 1 105 C1 102.69 1 100.38 1 98 C1.33 98 1.66 98 2 98 C2 99.65 2 101.3 2 103 C6.62 103 11.24 103 16 103 C16 69.34 16 35.68 16 1 C11.05 1 6.1 1 1 1 C1 13.54 1 26.08 1 39 C0.67 39 0.34 39 0 39 C0 26.13 0 13.26 0 0 Z " fill="#8FF514" transform="translate(778,586)"/>
<path d="M0 0 C6.6 0 13.2 0 20 0 C20 33 20 66 20 100 C13.73 100 7.46 100 1 100 C1 99.67 1 99.34 1 99 C6.94 99 12.88 99 19 99 C19 66.99 19 34.98 19 2 C13.39 2 7.78 2 2 2 C2 24.11 2 46.22 2 69 C0 67 0 67 -0.24050903 64.21591187 C-0.23606781 63.03010529 -0.23162659 61.84429871 -0.22705078 60.62255859 C-0.22748886 59.64188667 -0.22748886 59.64188667 -0.22793579 58.6414032 C-0.22654065 56.47694704 -0.2109712 54.31283364 -0.1953125 52.1484375 C-0.19158302 50.64914132 -0.18873574 49.1498427 -0.18673706 47.65054321 C-0.17909548 43.70163257 -0.1594426 39.75286871 -0.1373291 35.80401611 C-0.1168819 31.77561428 -0.10773776 27.74718876 -0.09765625 23.71875 C-0.07619709 15.81242508 -0.04101078 7.9062477 0 0 Z " fill="#94F214" transform="translate(379,722)"/>
<path d="M0 0 C21.12 0 42.24 0 64 0 C64 5.61 64 11.22 64 17 C49.48 17 34.96 17 20 17 C20 16.67 20 16.34 20 16 C33.86 16 47.72 16 62 16 C62 11.38 62 6.76 62 2 C60.62457031 2.01160156 59.24914062 2.02320313 57.83203125 2.03515625 C38.54127431 2.14106759 19.27958208 1.58998314 0 1 C0 0.67 0 0.34 0 0 Z " fill="#82D416" transform="translate(230,590)"/>
<path d="M0 0 C0.33 0.99 0.66 1.98 1 3 C1.66 3 2.32 3 3 3 C3 15.54 3 28.08 3 41 C4.65 41.66 6.3 42.32 8 43 C8 43.33 8 43.66 8 44 C5.6568787 43.74438677 3.32156597 43.40729228 1 43 C-0.71802382 39.56395235 -0.1196618 35.61561104 -0.09765625 31.8359375 C-0.0962413 30.92872955 -0.09482635 30.02152161 -0.09336853 29.08682251 C-0.08776096 26.18284845 -0.07520718 23.27895085 -0.0625 20.375 C-0.05748598 18.40885528 -0.0529229 16.44270935 -0.04882812 14.4765625 C-0.03778906 9.6510121 -0.02051935 4.82551903 0 0 Z " fill="#202A20" transform="translate(631,765)"/>
<path d="M0 0 C5.94 0 11.88 0 18 0 C18 4.95 18 9.9 18 15 C12.06 15 6.12 15 0 15 C0 28.2 0 41.4 0 55 C-0.33 55 -0.66 55 -1 55 C-1.16721165 49.17944212 -1.32781152 43.35875454 -1.48217773 37.5378418 C-1.53567894 35.55602051 -1.5910143 33.57424788 -1.64819336 31.5925293 C-1.72987855 28.75059507 -1.80505172 25.90855338 -1.87890625 23.06640625 C-1.90594131 22.17474258 -1.93297638 21.28307892 -1.96083069 20.36439514 C-2.01275915 18.24352554 -2.01188911 16.12147191 -2 14 C-1 13 -1 13 2.81640625 12.90234375 C4.39846682 12.90901911 5.98051159 12.92098125 7.5625 12.9375 C8.36880859 12.94201172 9.17511719 12.94652344 10.00585938 12.95117188 C12.00393756 12.96299482 14.00197783 12.98093086 16 13 C16 9.04 16 5.08 16 1 C10.72 1 5.44 1 0 1 C0 0.67 0 0.34 0 0 Z " fill="#7ED118" transform="translate(546,617)"/>
<path d="M0 0 C3.00633729 2.84383257 5.3598664 5.77497432 7.671875 9.203125 C8.33574219 10.1828125 8.99960937 11.1625 9.68359375 12.171875 C10.36550781 13.18765625 11.04742187 14.2034375 11.75 15.25 C12.44738281 16.28125 13.14476562 17.3125 13.86328125 18.375 C15.57947974 20.91403338 17.29155277 23.45574736 19 26 C18.67 26.66 18.34 27.32 18 28 C9.55353075 16.47835991 9.55353075 16.47835991 6 11 C5.01 11.66 4.02 12.32 3 13 C3 10.36 3 7.72 3 5 C2.34 5 1.68 5 1 5 C0.67 3.35 0.34 1.7 0 0 Z " fill="#111521" transform="translate(333,755)"/>
<path d="M0 0 C0 0.33 0 0.66 0 1 C-1.13179688 1.12117187 -2.26359375 1.24234375 -3.4296875 1.3671875 C-4.91151031 1.53600276 -6.39327842 1.70529855 -7.875 1.875 C-8.99455078 1.99294922 -8.99455078 1.99294922 -10.13671875 2.11328125 C-14.52555407 2.5080769 -14.52555407 2.5080769 -18 5 C-20.1640625 5.4140625 -20.1640625 5.4140625 -22.625 5.625 C-23.44226563 5.69976563 -24.25953125 5.77453125 -25.1015625 5.8515625 C-25.72804688 5.90054688 -26.35453125 5.94953125 -27 6 C-24.41720008 2.12580012 -22.50314579 1.78915784 -18.15234375 0.5625 C-12.13609462 -0.51103144 -6.09053513 -0.21925926 0 0 Z " fill="#8FED13" transform="translate(395,615)"/>
<path d="M0 0 C0.99 0 1.98 0 3 0 C1.18651505 4.61614351 -2.03372555 6.93714895 -6.3125 9.25 C-10.10059209 10.30714198 -13.05883496 10.31783589 -17 10 C-18.7421875 8.48046875 -18.7421875 8.48046875 -20 7 C-19.11957031 7.03480469 -18.23914063 7.06960938 -17.33203125 7.10546875 C-15.58986328 7.14607422 -15.58986328 7.14607422 -13.8125 7.1875 C-12.08966797 7.23970703 -12.08966797 7.23970703 -10.33203125 7.29296875 C-6.68893887 6.97264996 -4.89615538 6.18260985 -2 4 C-0.67206394 1.93299345 -0.67206394 1.93299345 0 0 Z " fill="#0E1024" transform="translate(610,800)"/>
<path d="M0 0 C0.66 0.99 1.32 1.98 2 3 C1.33613281 3.33644531 0.67226563 3.67289062 -0.01171875 4.01953125 C-4.1339299 6.75150648 -7.36904637 10.15837193 -10.8125 13.6875 C-11.50537109 14.38939453 -12.19824219 15.09128906 -12.91210938 15.81445312 C-14.61271009 17.53851041 -16.30844661 19.26707278 -18 21 C-18.66 20.67 -19.32 20.34 -20 20 C-13.4 13.4 -6.8 6.8 0 0 Z " fill="#94F316" transform="translate(642,489)"/>
<path d="M0 0 C0.33 0.66 0.66 1.32 1 2 C-0.25 5.5625 -0.25 5.5625 -2 9 C-2.99 9.33 -3.98 9.66 -5 10 C-5.68502385 11.32399568 -6.34859211 12.6591458 -7 14 C-8.32774288 15.4610504 -9.70631676 16.87708074 -11.125 18.25 C-11.84945312 18.95640625 -12.57390625 19.6628125 -13.3203125 20.390625 C-13.87460937 20.92171875 -14.42890625 21.4528125 -15 22 C-15.66 21.67 -16.32 21.34 -17 21 C-16.35933594 20.40574219 -15.71867188 19.81148438 -15.05859375 19.19921875 C-8.92284589 13.31950806 -4.22909871 7.36591365 0 0 Z " fill="#0F0F22" transform="translate(651,368)"/>
<path d="M0 0 C0 0.66 0 1.32 0 2 C-1.2375 2.04125 -2.475 2.0825 -3.75 2.125 C-7.59264712 2.56785827 -7.85518031 2.82259588 -10.5 6.0625 C-10.995 7.031875 -11.49 8.00125 -12 9 C-12.33 7.68 -12.66 6.36 -13 5 C-8.58490204 0.69258736 -6.42286118 -0.64228612 0 0 Z " fill="#90EF14" transform="translate(430,717)"/>
<path d="M0 0 C6.30885126 2.41220784 11.01806615 4.33340182 15 10 C11.01407866 9.39262151 8.44653025 7.36780019 5.25 5 C4.26515625 4.278125 3.2803125 3.55625 2.265625 2.8125 C1.51796875 2.214375 0.7703125 1.61625 0 1 C0 0.67 0 0.34 0 0 Z " fill="#121524" transform="translate(450,472)"/>
<path d="M0 0 C-2.81681979 1.87787986 -4.79458015 2.65143573 -8 3.5625 C-10.68768048 4.33440823 -13.34646102 5.11548701 -16 6 C-16.66 5.34 -17.32 4.68 -18 4 C-15.94037148 3.32451422 -13.87715678 2.65995688 -11.8125 2 C-10.66394531 1.62875 -9.51539063 1.2575 -8.33203125 0.875 C-5.35679188 0.09369447 -3.04716104 -0.18363306 0 0 Z " fill="#111223" transform="translate(493,392)"/>
<path d="M0 0 C1.19625 0.309375 2.3925 0.61875 3.625 0.9375 C6.25039202 1.60434025 8.74699491 2.10865381 11.4375 2.5 C12.7059375 2.7475 12.7059375 2.7475 14 3 C14.33 3.66 14.66 4.32 15 5 C4.24281984 4.39425587 4.24281984 4.39425587 0 1 C0 0.67 0 0.34 0 0 Z " fill="#131421" transform="translate(664,771)"/>
<path d="M0 0 C0.33 0.66 0.66 1.32 1 2 C-0.24125182 4.61161731 -1.5310524 7.10501786 -2.9375 9.625 C-3.32357422 10.33140625 -3.70964844 11.0378125 -4.10742188 11.765625 C-5.06448696 13.51433651 -6.03134031 15.25768432 -7 17 C-8.27514492 13.17456525 -7.52740413 11.66576992 -6 8 C-4.5625 6.4375 -4.5625 6.4375 -3 5 C-1.96642853 3.35394174 -0.95939668 1.69036558 0 0 Z " fill="#93EC15" transform="translate(363,247)"/>
<path d="M0 0 C1.98 0.99 1.98 0.99 4 2 C3.34 2 2.68 2 2 2 C2 5.3 2 8.6 2 12 C1.34 12 0.68 12 0 12 C0 8.04 0 4.08 0 0 Z " fill="#95F415" transform="translate(521,839)"/>
<path d="M0 0 C0.680625 0.45375 1.36125 0.9075 2.0625 1.375 C5.30435186 3.16836486 8.4203441 4.08753869 12 5 C12 5.33 12 5.66 12 6 C1.44191344 5.22095672 1.44191344 5.22095672 -3 3 C-2.01 2.67 -1.02 2.34 0 2 C0 1.34 0 0.68 0 0 Z " fill="#92F116" transform="translate(474,353)"/>
<path d="M0 0 C-1.24735567 0.6509259 -2.49801832 1.29551669 -3.75 1.9375 C-4.44609375 2.29714844 -5.1421875 2.65679688 -5.859375 3.02734375 C-7.90224433 3.95558182 -9.81115376 4.53166578 -12 5 C-8.0954726 0.81657778 -5.72342293 -1.65740789 0 0 Z " fill="#91F115" transform="translate(596,618)"/>
<path d="M0 0 C0.33 0 0.66 0 1 0 C1.08086147 1.79093191 1.13912702 3.58289628 1.1875 5.375 C1.22230469 6.37273438 1.25710938 7.37046875 1.29296875 8.3984375 C1.19628906 9.25695312 1.09960938 10.11546875 1 11 C0.01 11.66 -0.98 12.32 -2 13 C-1.855625 12.154375 -1.71125 11.30875 -1.5625 10.4375 C-0.9941203 6.96406851 -0.48797607 3.48554338 0 0 Z " fill="#100F22" transform="translate(557,724)"/>
<path d="M0 0 C3.3 0.33 6.6 0.66 10 1 C6.91111478 3.05925681 6.29064073 3.2390374 2.8125 3.125 C0.9253125 3.063125 0.9253125 3.063125 -1 3 C-0.67 2.01 -0.34 1.02 0 0 Z " fill="#252D21" transform="translate(447,401)"/>
</svg>
